<svg width="24" height="25" viewBox="0 0 24 25" fill="none" xmlns="http://www.w3.org/2000/svg">
<path fill-rule="evenodd" clip-rule="evenodd" d="M12 1C9.38844 0.998563 6.86169 1.99393 4.87219 3.80787C2.88269 5.62181 1.56037 8.13585 1.14201 10.8998C0.723654 13.6638 1.23658 16.4972 2.58894 18.8927C3.9413 21.2881 6.04478 23.0892 8.52272 23.9734C9.07499 24.083 9.27443 23.7212 9.27443 23.4251C9.27443 23.129 9.27443 22.4053 9.27443 21.4238C6.20624 22.1366 5.57215 19.8447 5.57215 19.8447C5.36921 19.1196 4.92766 18.4981 4.32954 18.0957C3.33238 17.3665 4.40624 17.3774 4.40624 17.3774C4.75456 17.4297 5.08716 17.5665 5.3787 17.7775C5.67025 17.9884 5.91306 18.2679 6.08863 18.5946C7.07045 20.3985 8.64545 19.8776 9.28977 19.5761C9.34064 18.9771 9.58903 18.4172 9.99033 17.997C7.54602 17.7009 4.97897 16.6921 4.97897 12.1742C4.96277 11.0021 5.36949 9.86867 6.1142 9.01053C5.77586 7.99426 5.8143 6.87751 6.22158 5.89075C6.22158 5.89075 7.14204 5.57274 9.24374 7.09699C11.045 6.57063 12.9448 6.57063 14.746 7.09699C16.8477 5.57274 17.7682 5.89075 17.7682 5.89075C18.1724 6.87827 18.2108 7.99375 17.8756 9.01053C18.6189 9.86922 19.0238 11.0028 19.0057 12.1742C19.0057 16.703 16.4489 17.6954 13.9892 17.9915C14.2531 18.2782 14.4564 18.6225 14.5852 19.0009C14.714 19.3794 14.7654 19.7831 14.7358 20.1847C14.7358 21.7583 14.7358 23.0303 14.7358 23.4196C14.7358 23.8089 14.9352 24.0995 15.4926 23.9679C17.968 23.0803 20.0681 21.2773 21.4173 18.8815C22.7665 16.4858 23.2767 13.6534 22.8567 10.8913C22.4367 8.12909 21.1138 5.61724 19.1247 3.80506C17.1357 1.99287 14.6102 0.99856 12 1Z" stroke="white" stroke-width="1.25" stroke-linecap="round" stroke-linejoin="round"/>
</svg>
