<svg width="22" height="22" viewBox="0 0 22 22" fill="none" xmlns="http://www.w3.org/2000/svg">
<g clip-path="url(#clip0_70_42)">
<path d="M5.72982 22.2833H0.709961V8.57915H5.72982V22.2833ZM14.7655 12.7959C13.6565 12.7958 12.7575 13.7398 12.7575 14.9042V22.2833H7.73777V8.57915H12.7575V10.1446C13.8783 9.1473 15.2945 8.59009 16.7634 8.5686C19.7372 8.5686 21.7933 10.8878 21.7933 15.2679V22.2833H16.7734V14.9042C16.7734 13.7398 15.8744 12.7959 14.7655 12.7959ZM5.72982 3.8354C5.72982 5.86418 3.63821 7.13213 1.96495 6.11779C0.291694 5.10345 0.291694 2.56745 1.96495 1.55311C2.3465 1.32179 2.77932 1.20001 3.21994 1.20001C4.60612 1.19991 5.72982 2.37991 5.72982 3.8354Z" stroke="#F6F6F6" stroke-linecap="round" stroke-linejoin="round"/>
</g>
<defs>
<clipPath id="clip0_70_42">
<rect width="22" height="22" fill="white"/>
</clipPath>
</defs>
</svg>
